<?xml version="1.0"?>
<svg id="cart" fill="#b3b3b3" xmlns="http://www.w3.org/2000/svg" viewBox="0 0 22 22"><path d="M10.2 19c-.8 0-1.4.6-1.4 1.4 0 .8.6 1.4 1.4 1.4.8 0 1.4-.6 1.4-1.4 0-.8-.6-1.4-1.4-1.4ZM16.8 19c-.8 0-1.4.6-1.4 1.4 0 .8.6 1.4 1.4 1.4.8 0 1.4-.6 1.4-1.4 0-.8-.6-1.4-1.4-1.4Z"/><path fill-rule="evenodd" d="M.9 1.9a1 1 0 0 1 1-1h4a1 1 0 0 1 .98.804L9.62 15.4h8.68a1 1 0 1 1 0 2H8.8a1 1 0 0 1-.98-.804L5.08 2.9H1.9a1 1 0 0 1-1-1Z" clip-rule="evenodd"/><path fill-rule="evenodd" d="M5.9 5.4a1 1 0 0 1 1-1h12.9c1.723 0 2.536 1.719 2.036 3.051a1.012 1.012 0 0 1-.056.124l-1.976 3.656c-.34.791-1.06 1.369-2.004 1.369h-9a1 1 0 1 1 0-2h9c.042 0 .059-.01.071-.019a.341.341 0 0 0 .1-.152c.015-.036.031-.07.05-.105l1.957-3.62a.308.308 0 0 0-.03-.23.151.151 0 0 0-.052-.054.185.185 0 0 0-.096-.02H6.9a1 1 0 0 1-1-1Z" clip-rule="evenodd"/></svg>