<svg style="enable-background:new 0 0 26 26" version="1.1" viewBox="0 0 26 26" xmlns="http://www.w3.org/2000/svg">
 <style type="text/css">.st0{fill:#b3b3b3;}</style>
 <g transform="translate(-.011212)">
  <path class="st0" d="m2.6272 24.8c-0.71358 0-1.4272-0.3-1.4272-0.8v-13c0-0.4 0.53518-0.8 1.4272-0.8 0.89197 0 1.4272 0.3 1.4272 0.8v13c0 0.4-0.71358 0.8-1.4272 0.8z" style="stroke-width:1.3356"/>
  <path class="st0" d="m9.2352 24.8c-0.71358 0-1.4272-0.3-1.4272-0.8v-22c0-0.4 0.53518-0.8 1.4272-0.8 0.89197 0 1.4272 0.4 1.4272 0.8v22c0 0.4-0.71358 0.8-1.4272 0.8z" style="stroke-width:1.3356"/>
  <path class="st0" d="m15.843 24.8c-0.71358 0-1.4272-0.3-1.4272-0.8v-15c0-0.4 0.53518-0.8 1.4272-0.8 0.89197 0 1.4272 0.3 1.4272 0.8v15c0 0.4-0.71358 0.8-1.4272 0.8z" style="stroke-width:1.3356"/>
  <path class="st0" d="m23.395 24.8c-0.71358 0-1.4272-0.3-1.4272-0.8v-8c0-0.4 0.53518-0.8 1.4272-0.8 0.89197 0 1.4272 0.3 1.4272 0.8v8c0 0.4-0.71358 0.8-1.4272 0.8z" style="stroke-width:1.3356"/>
 </g>
</svg>
