<svg id="socio_youtube" xmlns="http://www.w3.org/2000/svg" xml:space="preserve" fill-rule="evenodd" clip-rule="evenodd" image-rendering="optimizeQuality" shape-rendering="geometricPrecision" text-rendering="geometricPrecision" viewBox="0 0 5067 5067"><rect width="5067" height="5067" fill="#ed2524" rx="489" ry="489"/><path fill="#fefefe" d="m3110 2497-933 504V1989l421 229 512 279zm1116-684s-33-248-137-357c-131-144-278-145-346-153-483-36-1208-36-1208-36h-2s-725 0-1209 36c-67 8-214 9-346 153-103 109-137 357-137 357s-35 292-35 583v274c0 291 35 583 35 583s34 248 137 357c132 144 304 139 381 154 277 28 1175 36 1175 36s726-1 1209-37c68-9 215-9 346-153 104-109 137-357 137-357s35-292 35-583v-274c0-291-35-583-35-583z"/></svg>