<svg width="16" height="17" viewBox="0 0 16 17" fill="none" xmlns="http://www.w3.org/2000/svg">
    <path d="M6.92545 7.54586L5.86486 12.0007C5.83544 12.1243 5.82073 12.1861 5.81016 12.247C5.74424 12.6265 5.78933 13.017 5.94001 13.3715C5.96418 13.4284 5.99258 13.4852 6.04939 13.5988C6.08685 13.6737 6.10557 13.7112 6.114 13.7401C6.16929 13.9299 6.04819 14.1259 5.8537 14.1613C5.82407 14.1667 5.78245 14.1667 5.69921 14.1667C4.93835 14.1667 3.68238 14.1667 3.01855 14.1667C2.2428 14.1667 1.85493 14.1667 1.65737 13.9121C1.45982 13.6574 1.55389 13.2787 1.74204 12.5213L2.64429 8.88939C2.81383 8.20693 2.30093 7.54586 1.60193 7.54586C1.45357 7.54586 1.33331 7.4248 1.33331 7.27553V5.55961C1.33331 3.91632 1.67411 3.57336 3.307 3.57336L14.4999 3.57352C14.8589 4.24499 14.7913 6.6621 14.2022 7.255C13.9132 7.54586 13.448 7.54586 12.5176 7.54586H6.92545ZM6.92545 7.54586L1.74204 7.55487" stroke="#C50000" stroke-width="1.3" stroke-linecap="round" stroke-linejoin="round"/>
    <path d="M6 10.1667H6.58459C7.2184 10.1667 7.53533 10.1667 7.81307 10.1068C8.60973 9.93513 9.2842 9.40853 9.644 8.67727C9.7694 8.42233 9.84627 8.11493 10 7.5" stroke="#C50000"/>
</svg>