<svg width="16" height="17" viewBox="0 0 16 17" fill="none" xmlns="http://www.w3.org/2000/svg">
    <path d="M11 6.76664L5 3.30664" stroke="#C50000" stroke-width="1.33333" stroke-linecap="round" stroke-linejoin="round"/>
    <path d="M14 11.1666V5.83327C13.9998 5.59945 13.938 5.36981 13.821 5.16737C13.704 4.96494 13.5358 4.79684 13.3333 4.67993L8.66667 2.01327C8.46397 1.89624 8.23405 1.83463 8 1.83463C7.76595 1.83463 7.53603 1.89624 7.33333 2.01327L2.66667 4.67993C2.46418 4.79684 2.29599 4.96494 2.17897 5.16737C2.06196 5.36981 2.00024 5.59945 2 5.83327V11.1666C2.00024 11.4004 2.06196 11.6301 2.17897 11.8325C2.29599 12.0349 2.46418 12.203 2.66667 12.3199L7.33333 14.9866C7.53603 15.1036 7.76595 15.1652 8 15.1652C8.23405 15.1652 8.46397 15.1036 8.66667 14.9866L13.3333 12.3199C13.5358 12.203 13.704 12.0349 13.821 11.8325C13.938 11.6301 13.9998 11.4004 14 11.1666Z" stroke="#C50000" stroke-width="1.33333" stroke-linecap="round" stroke-linejoin="round"/>
    <path d="M2.17999 5.13998L7.99999 8.50664L13.82 5.13998" stroke="#C50000" stroke-width="1.33333" stroke-linecap="round" stroke-linejoin="round"/>
    <path d="M8 15.22V8.5" stroke="#C50000" stroke-width="1.33333" stroke-linecap="round" stroke-linejoin="round"/>
</svg>