<svg id="appgallery" fill="#fff" xmlns="http://www.w3.org/2000/svg" viewBox="0 0 516.5 172.31"><defs/><g><g><g><g><path class="cls-1" d="M77.38 93.84H82l-2.32-5.39zm-1.14 2.71l-1.37 3.14h-3.12l6.64-15h2.69l6.61 15h-3.2l-1.36-3.14zm50.2 3.13h3V84.63h-3zm-12-6.47H120v-2.74h-5.56v-3.08h8.07v-2.74h-11.08v15h11.37v-2.71h-8.36zm-12 1.78L99 84.63h-2.45L93.13 95 89.8 84.64h-3.25l5.25 15h2.53l3.42-9.88 3.43 9.88h2.55l5.23-15h-3.17L102.46 95zm-35.29-1.73c0 2.44-1.22 3.75-3.42 3.75s-3.45-1.34-3.45-3.86v-8.51h-3.05v8.62c0 4.23 2.35 6.66 6.45 6.66s6.52-2.47 6.52-6.79v-8.49h-3v8.62zm-17.21-8.62H53V99.7h-3.06v-6.12H43v6.12h-3V84.64h3v6.07h6.9zM84.72 65.46a19.19 19.19 0 01-19.17-19.17h2.7a16.47 16.47 0 0032.93 0h2.71a19.19 19.19 0 01-19.17 19.17z"/><path class="cls-3" d="M177.73 60a9.82 9.82 0 01-7.95-3.42q-2.9-3.42-2.89-9.94a20.13 20.13 0 01.74-5.73 11.8 11.8 0 012.15-4.18 9 9 0 013.42-2.57 11.18 11.18 0 014.53-.87 10.19 10.19 0 015.65 1.46 9.86 9.86 0 013.62 4.31L183.43 41a6.45 6.45 0 00-2.05-2.94A6.64 6.64 0 00173 39a8.53 8.53 0 00-1.7 5.64v3.94a8.56 8.56 0 001.7 5.65 6.51 6.51 0 008.5.84 7.09 7.09 0 002.19-3.07l3.37 2a10.46 10.46 0 01-3.63 4.38 9.93 9.93 0 01-5.7 1.62zM191.2 40.29h4v7.76h3.41l3.18-5.36a5.49 5.49 0 011.63-1.89 3.86 3.86 0 012.07-.51h2v3.29h-2.15l-2.44 4.07a5.4 5.4 0 01-1 1.33 2.86 2.86 0 01-1.13.56v.14a3.39 3.39 0 011.3.54 3.71 3.71 0 011.07 1.35l2.59 4.66h2.11v3.3h-2.29a3.76 3.76 0 01-2.09-.56 5.34 5.34 0 01-1.65-2l-3.18-5.7h-3.41v8.22h-4zM225.94 59.53a3.2 3.2 0 01-2.44-.91 4 4 0 01-1-2.31h-.19a4.72 4.72 0 01-2 2.73 6.65 6.65 0 01-3.59.93 6.41 6.41 0 01-4.61-1.55 5.59 5.59 0 01-1.61-4.19 4.91 4.91 0 012.09-4.32 10.67 10.67 0 016.12-1.45h3.48v-1.63a3.71 3.71 0 00-1-2.73 4.12 4.12 0 00-3-1 4.75 4.75 0 00-2.77.75 6.62 6.62 0 00-1.81 1.88l-2.41-2.18a7.62 7.62 0 012.7-2.68 8.68 8.68 0 014.55-1.06 8.48 8.48 0 015.74 1.74 6.29 6.29 0 012 5v9.65h2v3.3zm-8.14-2.63a5.49 5.49 0 003.11-.83 2.58 2.58 0 001.22-2.24v-2.78h-3.4c-2.79 0-4.18.87-4.18 2.59v.67a2.25 2.25 0 00.87 1.94 3.87 3.87 0 002.38.65zM242.37 51h-.18a6.47 6.47 0 01-2.08 1.74 7.06 7.06 0 01-3.29.66 6.31 6.31 0 01-4.64-1.55 6.44 6.44 0 01-1.58-4.77v-6.79h4v6.51a3 3 0 00.85 2.38 4 4 0 002.74.76 6.87 6.87 0 003-.55 1.74 1.74 0 001.13-1.59v-7.51h4v19.24h-4zM266.27 59.53a3.2 3.2 0 01-2.44-.91 4 4 0 01-1-2.31h-.19a4.72 4.72 0 01-2 2.73A6.67 6.67 0 01257 60a6.41 6.41 0 01-4.61-1.55 5.59 5.59 0 01-1.61-4.19 4.91 4.91 0 012.09-4.32 10.71 10.71 0 016.13-1.48h3.48v-1.63a3.71 3.71 0 00-1-2.73 4.12 4.12 0 00-3-1 4.75 4.75 0 00-2.77.75 6.62 6.62 0 00-1.81 1.88l-2.41-2.18a7.62 7.62 0 012.7-2.68 8.68 8.68 0 014.55-1.06 8.48 8.48 0 015.74 1.74 6.29 6.29 0 012 5v9.65h2v3.3zm-8.14-2.63a5.49 5.49 0 003.11-.83 2.58 2.58 0 001.22-2.24v-2.78h-3.4c-2.79 0-4.18.87-4.18 2.59v.67a2.25 2.25 0 00.87 1.94 3.87 3.87 0 002.38.65zM272.49 40.29h4v9.39l-.37 4.55h.15l2.29-4.1 6.66-9.84h3.66v19.24h-4v-9.4l.37-4.55h-.14l-2.3 4.1-6.66 9.85h-3.66zm8.21-2.56a6.18 6.18 0 01-3.53-.9 6.42 6.42 0 01-2.09-2.5l-.74-1.63 3.29-1.33 1.26 3.33a6.72 6.72 0 00.87.18 5.62 5.62 0 001.89 0 6.72 6.72 0 00.87-.18l1.25-3.33 3.3 1.33-.74 1.63a6.42 6.42 0 01-2.09 2.5 6.21 6.21 0 01-3.54.9zM298.61 43.58h-6.14v-3.29h16.32v3.29h-6.15v16h-4zM319.59 60a9.37 9.37 0 01-3.7-.7 7.59 7.59 0 01-2.78-2 9 9 0 01-1.75-3.18 14.58 14.58 0 010-8.33 9 9 0 011.75-3.18 7.88 7.88 0 012.78-2 9.37 9.37 0 013.7-.7 9 9 0 013.72.74 7.62 7.62 0 012.69 2 9 9 0 011.61 3.06 12.43 12.43 0 01.54 3.73v1.52h-13.22v.63a5.13 5.13 0 001.31 3.62A4.87 4.87 0 00320 56.6a5.45 5.45 0 003-.77 6.62 6.62 0 002.08-2.1l2.36 2.34a7.52 7.52 0 01-3.1 2.84 10 10 0 01-4.75 1.09zm0-17a4.78 4.78 0 00-1.91.37 4.13 4.13 0 00-1.48 1 4.82 4.82 0 00-.94 1.59 6.17 6.17 0 00-.33 2v.26h8.95v-.37a5.3 5.3 0 00-1.15-3.57 3.89 3.89 0 00-3.14-1.28zM341.35 40.29h10.24a5.23 5.23 0 013.83 1.33 4.77 4.77 0 011.35 3.55q0 3.63-3.88 4.11v.18a5.21 5.21 0 013.46 1.35 4.21 4.21 0 011.13 3 6.22 6.22 0 01-.39 2.26 5.32 5.32 0 01-1.11 1.8 5.1 5.1 0 01-1.76 1.18 6.17 6.17 0 01-2.33.43h-10.54zm9.1 8a2.23 2.23 0 001.59-.52 1.9 1.9 0 00.55-1.48v-.93a1.88 1.88 0 00-.55-1.47 2.23 2.23 0 00-1.59-.52h-5.15v4.92zm.52 8.18a2.5 2.5 0 001.7-.56 2.07 2.07 0 00.63-1.63v-1a2.1 2.1 0 00-.63-1.64 2.4 2.4 0 00-1.7-.58h-5.67v5.41z"/><path d="M456.58 94.13h8.57c2.67 8.75 6.09 17.28 8.16 26.2 2.34-8.89 5.59-17.49 8.41-26.23h8c-4.21 11.72-8.51 23.4-12.74 35.11-1.67 4.33-3.74 9-7.91 11.42s-9.37 2-13.88.78c.48-1.95 1-3.9 1.45-5.84 2.5.46 5.32 1.15 7.66-.25 2.6-1.44 3.78-4.32 4.84-6.94-4.21-11.42-8.35-22.87-12.55-34.29zm-9.69 0c2.09-.94 4.45-.7 6.66-.4-.28 2.32-.65 4.61-1 6.92-4.84-1.46-9.2 1.83-11.69 5.69v21.86h-7.93c-.11-11.37.22-22.74-.19-34.09h7.44c.22 2.1.42 4.21.57 6.33 1.53-2.5 3.36-5.06 6.11-6.3zm-39.23 6.94c-1.7 1.58-2.26 3.92-2.8 6.09h14.35c-.26-2-.56-4.22-2-5.81a6.61 6.61 0 00-9.33-.49 2.73 2.73 0 00-.25.23zm-7.92-1.07c4.82-7.88 17.81-9 23.62-1.7 3.08 3.88 3.75 9.06 3.53 13.87h-22.2c.21 3.56 1.39 7.62 4.81 9.35 4.78 2.36 10.34.79 15-1 .59 1.84 1.18 3.67 1.76 5.52-6 2.71-13.08 3.68-19.49 1.83a13.78 13.78 0 01-9.32-10c-1.43-5.93-1.09-12.65 2.25-17.91zM336 113.41c-3.44 1.7-3.66 7.9.22 9.17s7.83-1 10.64-3.54v-6.34c-3.6-.28-7.45-.83-10.85.71zM328 96c6.29-2.37 13.51-3.57 20-1.27 4.57 1.69 6.61 6.76 6.81 11.31.23 7.41-.21 14.84.32 22.25h-7.5a55.98 55.98 0 01-.47-4.28 15.13 15.13 0 01-9.18 4.8c-3.92.52-8.45-.57-10.81-4-3.22-4.73-2.11-12.37 3.19-15.16 5.11-2.55 11.09-2.06 16.62-1.6.12-3-.55-6.76-3.72-8-4.64-1.56-9.63.06-14 1.83-.43-2-.85-3.93-1.27-5.89zm-74.34 7.67v18.2c3.3 1.2 7.26 1.81 10.42-.15 3-1.89 4.06-5.6 4.32-8.93s.18-6.84-1.47-9.81a6.48 6.48 0 00-6.95-3c-2.5.39-4.53 2.06-6.32 3.74zm-.21-5.38A13.81 13.81 0 01265 93.55a11.8 11.8 0 019.65 6.87c2.06 4.42 2.16 9.5 1.52 14.26s-3.25 9.79-7.7 12.21-10 2.36-14.89 1v13.87c-2.65.23-5.3.44-8 .68v-40.87c-.07-2.48-.15-5-.31-7.44h7.53c.19 1.37.36 2.74.51 4.12zm-35.6 5.42c.09 6-.14 12.07.11 18.09 3.85 1.68 9.12 1.93 12.09-1.51 3-3.84 3.07-9.17 2.42-13.8-.38-3.13-2.61-6.33-6-6.62-3.38-.49-6.32 1.66-8.66 3.84zm7-9.8c4.53-1.18 9.85.25 12.68 4.1 3.41 4.59 3.8 10.68 3.1 16.17-.58 5-3.07 10.09-7.59 12.65s-10.24 2.5-15.18 1v13.93c-2.59.25-5.19.45-7.79.7-.15-16.1.35-32.2-.35-48.28h7.5c.2 1.33.39 2.66.54 4a15.8 15.8 0 017.07-4.26zm67.47-9.34c8.21-4 18.14-3.25 26.28.57-.65 2.06-1.36 4.11-2 6.17-5.77-2.66-12.67-4.22-18.74-1.63a14.48 14.48 0 00-8.25 10.11 24.47 24.47 0 001 14.91A12.57 12.57 0 00299 122c4.37 1.09 9 .41 13.19-.94v-9.11h-10.63v-6.22h18.21v19.47c-7 3.1-14.85 4.65-22.42 3.21a19.81 19.81 0 01-13.1-8.53C280.62 114.1 280 107 281 100.42a21.09 21.09 0 0111.28-15.89zm-108 6.56c-1.9 6.31-4.42 12.4-6.63 18.6H191c-2.22-6.2-4.75-12.31-6.72-18.6zm-3.74-8.65h7.69c6.16 15.24 12.24 30.52 18.35 45.78H198c-1.53-4-3-8.11-4.57-12.15h-18.2c-1.47 4-3 8.1-4.46 12.15h-8.22q9-22.87 17.94-45.75zm200.31-2.61c2.64-.25 5.29-.44 7.94-.67 0 13.5-.05 27 0 40.49-.19 2.8 3 3.23 5.06 2.52.27 1.92.61 3.83.9 5.74-3.46 1-7.47 1.64-10.73-.27-2.46-1.53-3.25-4.61-3.21-7.33V79.87zm-19.31 0c2.59-.23 5.19-.42 7.79-.66v38.6c.09 1.41-.06 3.13 1.09 4.16s2.77.42 4.15.27c.24 1.92.56 3.82.88 5.73-3.32.92-7.12 1.58-10.33 0-2.54-1.27-3.57-4.28-3.58-7q-.09-20.65-.08-41.2z" fill-rule="evenodd"/></g></g><rect x="29.45" y="29.38" width="115.19" height="115.19" rx="24.81" fill="#e14459"/><path d="M57.4 39.73c-1.14.06-1.08 1.72-1.08 1.72 6.12 11.92 17.39 17.76 30.38 17.76s24.37-5.93 30.48-17.83c0 0 .24-2.24-2.15-1.46-6.26 10.39-16.79 16.53-28.32 16.55S64.67 50.39 58.39 40a2 2 0 00-.99-.27zm41.42 46.33l-3.48 10.37L92 86.07h-3.36L94 101.14h2.58l3.49-9.9 3.48 9.9h2.6l5.33-15.07h-3.22l-3.4 10.36-3.48-10.37zm-18.49 0l-6.76 15.07h3.18l1.3-2.91.09-.22h7l1.38 3.13h3.28l-6.69-15-.06-.09zm48.93 0v15.07h3.07V86.07zm-88 0v15.08h3.11V95h7v6.13h3.11V86.07h-3.12v6.08h-7v-6.08zm27.66 0v8.64c0 2.45-1.24 3.76-3.49 3.76s-3.51-1.34-3.51-3.86v-8.52h-3.15v8.62c0 4.25 2.4 6.68 6.58 6.68S72 98.9 72 94.58v-8.51zm45.09 0v15.06h11.59v-2.73H117v-3.73h5.66v-2.75H117v-3.08h8.22v-2.75zm-32.33 3.8l2.22 5.05.16.35h-4.75l.15-.35z" fill="#fff"/></g></g></svg>