<svg fill="#fff" id="appstore" xmlns="http://www.w3.org/2000/svg" viewBox="0 0 526.71 175.66"><defs/><g><g><path d="M138.55 115.3a84.46 84.46 0 01-7.64 14.27c-5 7.55-12 17-20.62 17-7.7.07-9.68-5-20.13-5s-12.63 5-20.33 5c-8.67-.08-15.29-8.58-20.25-16.13-13.88-21.06-15.33-45.85-6.77-59.03 6.08-9.36 15.67-14.84 24.69-14.84 9.19 0 15 5 22.55 5 7.37 0 11.86-5 22.48-5 8 0 16.52 4.37 22.59 11.93-19.86 10.87-16.63 39.22 3.43 46.8z" class="cls-2"/><path d="M104.47 48.12c3.86-4.95 6.79-11.94 5.73-19.09-6.31.43-13.68 4.44-18 9.67-3.91 4.75-7.13 11.78-5.88 18.62 6.9.22 14.02-3.89 18.15-9.2zM180.82 71.09l-19.88 58.51H170l5.94-18h19.24l6.1 18h9.36l-20-58.51zm4.71 9.62c.67 2.62 1.4 5.33 2.33 8.26l5.35 15.51H178l5.28-15.61c.78-2.53 1.54-5.27 2.25-8.16zM236.39 86.26c-6 0-10.85 2.33-14.07 6.75l-.32-5.82h-8.1v.75c.24 3.62.34 7.61.34 13.34v45.09h8.85v-21a15.53 15.53 0 0012.1 5.2 18.26 18.26 0 0013.41-5.7c3.88-4.1 5.93-10 5.93-17 0-6.22-1.78-11.59-5.15-15.54a16.82 16.82 0 00-12.99-6.07zm-2.2 7.33c7.89 0 11.42 7.31 11.42 14.55 0 9.34-4.51 15.15-11.76 15.15a10.72 10.72 0 01-10.42-8.22 11 11 0 01-.32-2.86v-7.12a14 14 0 01.28-2.18c.05-.25.09-.49.13-.72a11.2 11.2 0 0110.67-8.6zM282 86.26c-6 0-10.85 2.33-14.07 6.75l-.35-5.82h-8.1l.05.75c.24 3.63.34 7.61.34 13.34v45.09h8.85v-21a15.53 15.53 0 0012.1 5.2 18.3 18.3 0 0013.42-5.7c3.87-4.1 5.92-10 5.92-17 0-6.22-1.78-11.59-5.15-15.54A16.82 16.82 0 00282 86.26zm-2.2 7.33c7.89 0 11.42 7.31 11.42 14.55 0 9.34-4.51 15.15-11.76 15.15a10.72 10.72 0 01-10.46-8.22 11 11 0 01-.32-2.86v-7.12a13.08 13.08 0 01.29-2.19l.12-.71a11.2 11.2 0 0110.68-8.6zM339.08 95.88c-8.26-3.2-10.91-5.71-10.91-10.36 0-3.91 3.11-7.86 10.06-7.86a20.07 20.07 0 0110.39 2.61l.75.46 2.5-7.39-.5-.29c-1.48-.86-5.7-2.89-12.89-2.89-11.28 0-19.17 6.67-19.17 16.21 0 7.69 4.94 13.06 15.54 16.92 7.51 2.81 10.31 5.68 10.31 10.61 0 5.58-4.32 9-11.25 9a24.23 24.23 0 01-12.76-3.62l-.77-.49-2.38 7.6.44.29c3.34 2.24 9.63 3.85 15 3.85 15.21 0 20.61-9.28 20.61-17.22-.05-8.19-4.37-13.24-14.97-17.43zM369.94 77.11l-8.68 2.73v7.35h-6.36v7.08h6.36v21.67c0 5.23 1 8.91 3.06 11.23a11.35 11.35 0 008.57 3.36 20.71 20.71 0 006.84-1.06l.5-.17-.43-7.09-.85.26a13.39 13.39 0 01-4.11.48c-3.43 0-4.9-2.17-4.9-7.27V94.27h10.68v-7.08h-10.68zM402.55 86.26c-12.38 0-21 9.24-21 22.47 0 12.84 8.37 21.8 20.36 21.8h.09c10.13 0 21-7.06 21-22.56 0-6.3-1.95-11.71-5.64-15.65a19.69 19.69 0 00-14.81-6.06zm-.25 7c8 0 11.59 7.76 11.59 15 0 8.87-4.95 15.31-11.76 15.31H402c-6.71 0-11.58-6.33-11.58-15.06.04-7.61 3.7-15.26 11.88-15.26zM450.1 86.67l-.53-.13a8.25 8.25 0 00-2.2-.28 12.64 12.64 0 00-11.1 7.13l-.26-6.2h-7.94l.05.75c.24 3.5.33 7.43.33 12.74l-.08 28.92h8.85V107a22.74 22.74 0 01.25-3.43c1-5.42 4.65-8.92 9.31-8.92a21.21 21.21 0 012.38.15l.94.09zM470 86.18c-11.78 0-20 9.41-20 22.89 0 13 8.19 21.38 20.86 21.38a34 34 0 0014-2.69l.54-.24-1.7-6.6-.74.3a27.45 27.45 0 01-11.09 2c-3.85 0-12.72-1.27-13.26-12.83l28.57.08.12-.56a19.79 19.79 0 00.26-3.7c0-9.21-4.56-20.03-17.56-20.03zm-.59 6.73a8.74 8.74 0 016.5 2.48c2.55 2.59 3 6.41 3 8.24h-20.14c.83-5.11 4.02-10.72 10.64-10.72zM181.73 55.22a9.83 9.83 0 01-7.95-3.42q-2.9-3.44-2.89-9.94a20.17 20.17 0 01.74-5.73 11.72 11.72 0 012.15-4.13 9 9 0 013.42-2.58 11.33 11.33 0 014.53-.87 10.21 10.21 0 015.65 1.45 9.83 9.83 0 013.62 4.31l-3.52 1.93a6.32 6.32 0 00-2.05-2.94 5.73 5.73 0 00-3.65-1.1 5.8 5.8 0 00-4.7 2 8.57 8.57 0 00-1.7 5.64v3.94a8.62 8.62 0 001.7 5.65 6.51 6.51 0 008.5.84 7.28 7.28 0 002.16-3.09l3.37 2a10.49 10.49 0 01-3.63 4.38 9.93 9.93 0 01-5.75 1.66zM195.2 35.53h4v7.77h3.41l3.18-5.36a5.55 5.55 0 011.63-1.89 3.83 3.83 0 012.07-.52h2v3.3h-2.15l-2.44 4.07a5.34 5.34 0 01-1 1.33 2.66 2.66 0 01-1.13.55v.15a3.38 3.38 0 011.3.54 3.8 3.8 0 011.07 1.35l2.59 4.66h2.11v3.29h-2.29a3.79 3.79 0 01-2.09-.55 5.31 5.31 0 01-1.65-2l-3.18-5.7h-3.41v8.21h-4zM229.94 54.77a3.2 3.2 0 01-2.44-.9 4 4 0 01-1-2.31h-.19a4.74 4.74 0 01-2 2.73 6.64 6.64 0 01-3.59.93 6.39 6.39 0 01-4.61-1.55 5.57 5.57 0 01-1.61-4.19 4.93 4.93 0 012.09-4.33 10.79 10.79 0 016.12-1.44h3.48v-1.63a3.73 3.73 0 00-1-2.74 4.09 4.09 0 00-3-1 4.79 4.79 0 00-2.77.74 6.66 6.66 0 00-1.83 1.92l-2.41-2.18a7.62 7.62 0 012.7-2.68 8.63 8.63 0 014.55-1.06 8.49 8.49 0 015.74 1.74 6.26 6.26 0 012 5v9.66h2v3.29zm-8.14-2.62a5.43 5.43 0 003.11-.83 2.58 2.58 0 001.22-2.24V46.3h-3.4c-2.79 0-4.18.87-4.18 2.59v.67a2.26 2.26 0 00.87 1.94 3.91 3.91 0 002.38.65zM246.37 46.23h-.18a6.43 6.43 0 01-2.08 1.77 7 7 0 01-3.29.66 6.36 6.36 0 01-4.64-1.55 6.45 6.45 0 01-1.58-4.77v-6.81h4v6.52a3 3 0 00.85 2.38 4 4 0 002.74.76 6.86 6.86 0 003-.55 1.74 1.74 0 001.13-1.59v-7.52h4v19.24h-4zM270.27 54.77a3.2 3.2 0 01-2.44-.9 4 4 0 01-1-2.31h-.19a4.74 4.74 0 01-2 2.73 6.64 6.64 0 01-3.59.93 6.39 6.39 0 01-4.61-1.55 5.57 5.57 0 01-1.61-4.19 4.93 4.93 0 012.09-4.33 10.79 10.79 0 016.08-1.44h3.48v-1.63a3.73 3.73 0 00-1-2.74 4.09 4.09 0 00-3-1 4.79 4.79 0 00-2.77.74 6.66 6.66 0 00-1.79 1.92l-2.41-2.18a7.62 7.62 0 012.7-2.68 8.63 8.63 0 014.55-1.06 8.49 8.49 0 015.74 1.74 6.26 6.26 0 012 5v9.66h2v3.29zm-8.14-2.62a5.43 5.43 0 003.11-.83 2.58 2.58 0 001.22-2.24V46.3h-3.4c-2.79 0-4.18.87-4.18 2.59v.67a2.26 2.26 0 00.87 1.94 3.91 3.91 0 002.38.65zM276.49 35.53h4v9.4l-.37 4.55h.15l2.29-4.1 6.66-9.85h3.66v19.24h-4v-9.39l.37-4.55h-.14l-2.3 4.1-6.66 9.84h-3.66zM284.7 33a6.13 6.13 0 01-3.53-.9 6.37 6.37 0 01-2.09-2.5l-.74-1.6 3.29-1.33 1.26 3.33a7.33 7.33 0 00.87.18 6.39 6.39 0 00.94.08 6.52 6.52 0 00.95-.08 7.33 7.33 0 00.87-.18l1.25-3.33 3.3 1.33-.74 1.63a6.45 6.45 0 01-2.09 2.5 6.19 6.19 0 01-3.54.87zM302.61 38.83h-6.14v-3.3h16.32v3.3h-6.15v15.94h-4zM323.59 55.22a9.42 9.42 0 01-3.7-.7 7.79 7.79 0 01-2.78-2 9.07 9.07 0 01-1.75-3.18 14.52 14.52 0 010-8.33 9.07 9.07 0 011.75-3.18 7.67 7.67 0 012.78-2 9.42 9.42 0 013.7-.7 8.88 8.88 0 013.72.74 7.47 7.47 0 012.69 2.01 9 9 0 011.61 3.06 12.5 12.5 0 01.54 3.73v1.52h-13.22v.63a5.14 5.14 0 001.31 3.62 4.89 4.89 0 003.76 1.41 5.51 5.51 0 003-.77 6.62 6.62 0 002.08-2.1l2.36 2.34a7.57 7.57 0 01-3.1 2.84 10.1 10.1 0 01-4.75 1.06zm0-17a4.78 4.78 0 00-1.91.37 4.2 4.2 0 00-1.48 1 4.75 4.75 0 00-.94 1.59 6.06 6.06 0 00-.33 2v.26h8.95v-.37a5.3 5.3 0 00-1.15-3.57 3.89 3.89 0 00-3.14-1.26zM345.35 35.53h10.24a5.21 5.21 0 013.83 1.34 4.75 4.75 0 011.35 3.55q0 3.63-3.88 4.11v.18a5.2 5.2 0 013.46 1.35 4.23 4.23 0 011.13 3 6.35 6.35 0 01-.39 2.26 5.34 5.34 0 01-1.11 1.8 5 5 0 01-1.76 1.18 6.16 6.16 0 01-2.33.42h-10.54zm9.1 8A2.27 2.27 0 00356 43a1.93 1.93 0 00.55-1.48v-.92a1.93 1.93 0 00-.55-1.48 2.27 2.27 0 00-1.59-.51h-5.11v4.92zm.55 8.17a2.48 2.48 0 001.7-.55 2.05 2.05 0 00.63-1.63v-1a2.14 2.14 0 00-.63-1.65 2.44 2.44 0 00-1.7-.57h-5.7v5.4z" class="cls-2"/></g></g></svg>