<svg id="play_market" fill="#fff" xmlns="http://www.w3.org/2000/svg" aria-hidden="true" viewBox="0 0 516.48 172.31"><defs><linearGradient id="linear-gradient" x1="69.43" y1="34.71" x2="69.43" y2="148.01" gradientUnits="userSpaceOnUse"><stop offset="0" stop-color="#2079b0"/><stop offset=".32" stop-color="#4a98b5"/><stop offset=".78" stop-color="#81bfbc"/><stop offset="1" stop-color="#97cfbf"/></linearGradient><linearGradient id="linear-gradient-2" x1="40.86" y1="62.83" x2="113.34" y2="62.83" gradientUnits="userSpaceOnUse"><stop offset="0" stop-color="#5abcab"/><stop offset="1" stop-color="#e6e99a"/></linearGradient><linearGradient id="linear-gradient-3" x1="77.1" y1="91.36" x2="77.1" y2="148.43" gradientUnits="userSpaceOnUse"><stop offset="0" stop-color="#e53432"/><stop offset=".18" stop-color="#d43745"/><stop offset=".73" stop-color="#a33e7c"/><stop offset="1" stop-color="#904192"/></linearGradient><linearGradient id="linear-gradient-4" x1="118.85" y1="76.15" x2="118.85" y2="106.58" gradientUnits="userSpaceOnUse"><stop offset="0" stop-color="#f18779"/><stop offset=".64" stop-color="#f9b575"/><stop offset="1" stop-color="#fdcb73"/></linearGradient><clipPath id="clip-path"><path d="M113.34 76.15L90.28 62.83 45.8 37.14c-2.47-1.42-4.94-.56-4.94 2.42v104.65c0 2.24 1.76 3.2 3.91 2l45.51-26.28 23.06-13.31 22.17-12.8c2.6-1.5 2.35-3.56.16-4.74s-22.33-12.93-22.33-12.93z" fill="none"/></clipPath></defs><g><g><g clip-path="url(#clip-path)" id="PLAY"><path fill="url(#linear-gradient)" d="M40.87 34.71v113.3L98 91.36 40.87 34.71z"/><path fill="url(#linear-gradient-2)" d="M113.34 76.15L90.28 62.83 40.87 34.3v.41L98 91.36l15.34-15.21z"/><path fill="url(#linear-gradient-3)" d="M40.87 148.01v.42l49.41-28.54 23.06-13.31L98 91.36l-57.13 56.65z"/><path fill="url(#linear-gradient-4)" d="M113.34 76.15L98 91.36l15.34 15.22 26.36-15.22-26.36-15.21z"/></g><path class="cls-8" d="M400.56 128.51a14.11 14.11 0 01-5.88-1.19 11.06 11.06 0 01-4.46-3.65h-.37a42.59 42.59 0 01.37 5.47v13.56h-5V95h4l.7 4.51h.24a11.47 11.47 0 014.48-3.91 13.6 13.6 0 015.86-1.2q6.56 0 10.12 4.48t3.56 12.56q0 8.13-3.62 12.62a12.23 12.23 0 01-10 4.45zm-.72-29.91q-5.05 0-7.31 2.79c-1.5 1.87-2.27 4.83-2.31 8.9v1.11q0 7 2.31 9.94c1.55 2 4 3 7.43 3a7.74 7.74 0 006.69-3.45q2.42-3.47 2.42-9.54c0-4.1-.81-7.26-2.42-9.45a8 8 0 00-6.81-3.3zM425.79 127.91h-5V81.13h5zM454.49 127.91l-1-4.69h-.24a13.76 13.76 0 01-4.91 4.19 14.89 14.89 0 01-6.12 1.1q-4.91 0-7.68-2.52c-1.86-1.69-2.78-4.08-2.78-7.19q0-10 16-10.46l5.59-.18v-2c0-2.58-.55-4.49-1.67-5.72s-2.89-1.85-5.33-1.85a21.74 21.74 0 00-9.32 2.52l-1.54-3.82a23.71 23.71 0 015.34-2.07 23.18 23.18 0 015.82-.75q5.89 0 8.73 2.61c1.9 1.75 2.84 4.54 2.84 8.39v22.49zm-11.28-3.52a10.13 10.13 0 007.32-2.55 9.45 9.45 0 002.66-7.16v-3l-5 .2c-4 .15-6.83.76-8.58 1.86a5.56 5.56 0 00-2.63 5.09 5.12 5.12 0 001.64 4.12 6.8 6.8 0 004.59 1.44zM461.08 95h5.35l7.22 18.79a71.82 71.82 0 012.94 9.29h.24c.27-1 .81-2.77 1.64-5.25S482 107.71 486.63 95H492l-14.16 37.52q-2.11 5.57-4.92 7.89a10.42 10.42 0 01-6.9 2.33 20.12 20.12 0 01-4.51-.51v-4a17.46 17.46 0 003.7.36q5.15 0 7.33-5.77l1.84-4.69zM307.25 96a11.64 11.64 0 014.89 9.31c0 5.09-2.89 7.51-5.79 9.78-.89.9-1.93 1.86-1.93 3.38a3.79 3.79 0 001.8 3l2.48 1.93c3 2.55 5.79 4.9 5.79 9.65 0 6.48-6.28 13-18.13 13-10 0-14.82-4.76-14.82-9.86 0-2.48 1.24-6 5.31-8.41 4.27-2.62 10.06-3 13.16-3.17-1-1.24-2.06-2.55-2.06-4.68a6.26 6.26 0 01.68-2.69c-.76.07-1.51.13-2.2.13-7.31 0-11.44-5.44-11.44-10.81a12.41 12.41 0 014.41-9.24c3.93-3.24 8.61-3.79 12.34-3.79h14.19L311.52 96zm-4.89 30.6a11.06 11.06 0 00-1.59-.07 27.42 27.42 0 00-7.23 1.11c-1.52.55-5.93 2.2-5.93 7.1s4.76 8.41 12.13 8.41c6.61 0 10.13-3.18 10.13-7.45 0-3.5-2.27-5.35-7.51-9.08zm2-13.09a7 7 0 001.72-5c0-5-3-12.68-8.69-12.68a6.43 6.43 0 00-4.82 2.28 8 8 0 00-1.52 5.1c0 4.62 2.69 12.27 8.62 12.27a7.09 7.09 0 004.69-1.95zM263.86 125.52a16.24 16.24 0 01-16.79-16.24c0-9 7.37-16.72 17.83-16.72a16.09 16.09 0 0116.44 16.24c0 8.12-6.26 16.72-17.48 16.72zm8.6-5.57a12.43 12.43 0 002.07-7.64c0-6.06-2.89-17.62-11.42-17.62a9.57 9.57 0 00-6.19 2.31c-2.69 2.4-3.17 5.43-3.17 8.39 0 6.81 3.37 18 11.7 18a8.78 8.78 0 007.01-3.39zM226.57 125.52a16.24 16.24 0 01-16.79-16.24c0-9 7.36-16.72 17.82-16.72A16.09 16.09 0 01244 108.8c0 8.12-6.22 16.72-17.43 16.72zm8.6-5.57a12.49 12.49 0 002.06-7.64c0-6.06-2.89-17.62-11.42-17.62a9.57 9.57 0 00-6.19 2.31c-2.69 2.4-3.17 5.43-3.17 8.39 0 6.81 3.37 18 11.7 18a8.79 8.79 0 007.02-3.39zM204.52 124.44l-9.89 2.28a72.7 72.7 0 01-11.42 1.18c-19.09 0-26.35-14.05-26.35-25.05 0-13.42 10.3-25.86 27.95-25.86a39.88 39.88 0 0110.58 1.45 26.84 26.84 0 019.13 4.29l-5.74 5.46-2.42.55 1.73-2.74c-2.35-2.28-6.65-6.5-14.81-6.5-10.93 0-19.16 8.31-19.16 20.41 0 13 9.41 25.25 24.49 25.25a20.58 20.58 0 008.78-1.73v-11.16l-10.44.55 5.53-3h14.67l-1.8 1.73a1.62 1.62 0 00-.69 1.1c-.07.63-.14 2.64-.14 3.33z"/><path class="cls-8" d="M329.12 122.45c-2.29-.21-2.77-.62-2.77-3.32V80v-.44c.28-2.42 1-2.84 3.12-4.09h-9.9l-5.19 2.5h5.29v42.71c0 1.38-.28 1.59-1.87 3.66h12.25l2.56-1.51c-1.14-.18-2.32-.24-3.49-.38zM357.27 123.09c-.76.41-1.51.89-2.27 1.23a16 16 0 01-6.67 1.31 14.65 14.65 0 01-9.13-2.63c-4.88-3.44-7-9.35-7-14.5 0-10.65 8.66-15.87 15.73-15.87a13.32 13.32 0 017.07 1.88 11.35 11.35 0 014.81 6.79l-16.14 6.53-5.3.42c1.72 8.72 7.63 13.8 14.16 13.8a17.73 17.73 0 008.38-2.4zm-6.46-20.48c1.3-.48 2-.89 2-1.85 0-2.75-3.09-5.91-6.8-5.91-2.75 0-7.9 2.13-7.9 9.55 0 1.16.14 2.4.21 3.64zM363.9 93.05v4.54h-.55v-4.54h-1.5v-.47h3.55v.47zM370.08 97.59V93l-1.39 4.58h-.44L366.82 93v4.58h-.5v-5h.86l1.27 4 1.25-4h.87v5z"/><path class="cls-9" d="M169.73 59a9.83 9.83 0 01-7.95-3.42q-2.9-3.42-2.89-9.94a20.17 20.17 0 01.74-5.73 11.72 11.72 0 012.15-4.18 9 9 0 013.42-2.57 11.16 11.16 0 014.53-.87 10.21 10.21 0 015.65 1.46 9.89 9.89 0 013.62 4.31L175.43 40a6.42 6.42 0 00-2.05-2.94 5.73 5.73 0 00-3.65-1.06 5.8 5.8 0 00-4.7 2 8.57 8.57 0 00-1.7 5.64v3.94a8.6 8.6 0 001.7 5.65 6.51 6.51 0 008.5.84 7.16 7.16 0 002.16-3.07l3.37 2a10.49 10.49 0 01-3.63 4.38 9.93 9.93 0 01-5.7 1.62zM183.2 39.29h4v7.76h3.41l3.18-5.36a5.55 5.55 0 011.63-1.89 3.83 3.83 0 012.07-.51h2v3.29h-2.15l-2.44 4.07a5.34 5.34 0 01-1 1.33 2.79 2.79 0 01-1.13.56v.14a3.38 3.38 0 011.3.54 3.8 3.8 0 011.07 1.35l2.59 4.66h2.11v3.3h-2.29a3.79 3.79 0 01-2.09-.56 5.31 5.31 0 01-1.65-2l-3.18-5.7h-3.41v8.22h-4zM217.94 58.53a3.21 3.21 0 01-2.44-.91 4 4 0 01-1-2.31h-.19a4.71 4.71 0 01-2 2.73 6.64 6.64 0 01-3.59.93 6.39 6.39 0 01-4.61-1.55 5.57 5.57 0 01-1.61-4.19 4.91 4.91 0 012.09-4.32 10.7 10.7 0 016.12-1.45h3.48v-1.63a3.69 3.69 0 00-1-2.73 4.1 4.1 0 00-3-1 4.72 4.72 0 00-2.77.75 6.5 6.5 0 00-1.81 1.88l-2.41-2.18a7.62 7.62 0 012.7-2.68 8.63 8.63 0 014.55-1.06 8.49 8.49 0 015.74 1.74 6.29 6.29 0 012 5v9.65h2v3.3zm-8.14-2.63a5.43 5.43 0 003.11-.83 2.57 2.57 0 001.22-2.24v-2.78h-3.4c-2.79 0-4.18.87-4.18 2.59v.67a2.26 2.26 0 00.87 1.94 3.91 3.91 0 002.38.65zM234.37 50h-.18a6.43 6.43 0 01-2.08 1.74 7 7 0 01-3.29.66 6.31 6.31 0 01-4.64-1.55 6.45 6.45 0 01-1.58-4.77v-6.79h4v6.51a3 3 0 00.85 2.38 4 4 0 002.74.76 6.86 6.86 0 003-.55 1.74 1.74 0 001.13-1.59v-7.51h4v19.24h-4zM258.27 58.53a3.21 3.21 0 01-2.44-.91 4 4 0 01-1-2.31h-.19a4.71 4.71 0 01-2 2.73A6.64 6.64 0 01249 59a6.39 6.39 0 01-4.61-1.55 5.57 5.57 0 01-1.61-4.19 4.91 4.91 0 012.09-4.32 10.7 10.7 0 016.13-1.48h3.48v-1.63a3.69 3.69 0 00-1-2.73 4.1 4.1 0 00-3-1 4.72 4.72 0 00-2.77.75 6.5 6.5 0 00-1.81 1.88l-2.41-2.18a7.62 7.62 0 012.7-2.68 8.63 8.63 0 014.55-1.06 8.49 8.49 0 015.74 1.74 6.29 6.29 0 012 5v9.65h2v3.3zm-8.14-2.63a5.43 5.43 0 003.11-.83 2.57 2.57 0 001.22-2.24v-2.78h-3.4c-2.79 0-4.18.87-4.18 2.59v.67a2.26 2.26 0 00.87 1.94 3.91 3.91 0 002.38.65zM264.49 39.29h4v9.39l-.37 4.55h.15l2.29-4.1 6.66-9.84h3.66v19.24h-4v-9.4l.37-4.55h-.14l-2.3 4.1-6.66 9.85h-3.66zm8.21-2.56a6.13 6.13 0 01-3.53-.9 6.37 6.37 0 01-2.09-2.5l-.74-1.63 3.29-1.33 1.26 3.33a7.33 7.33 0 00.87.18 6.39 6.39 0 00.94.08 6.52 6.52 0 00.95-.08 7.33 7.33 0 00.87-.18l1.25-3.33 3.3 1.33-.74 1.63a6.45 6.45 0 01-2.09 2.5 6.19 6.19 0 01-3.54.9zM290.61 42.58h-6.14v-3.29h16.32v3.29h-6.15v16h-4zM311.59 59a9.42 9.42 0 01-3.7-.7 7.67 7.67 0 01-2.78-2 9 9 0 01-1.75-3.18 14.52 14.52 0 010-8.33 9.07 9.07 0 011.75-3.18 7.79 7.79 0 012.78-2 9.42 9.42 0 013.7-.7 8.88 8.88 0 013.72.74 7.59 7.59 0 012.69 1.98 9 9 0 011.61 3.06 12.5 12.5 0 01.54 3.73v1.52h-13.22v.63a5.14 5.14 0 001.31 3.62A4.89 4.89 0 00312 55.6a5.43 5.43 0 003-.77 6.62 6.62 0 002.08-2.1l2.36 2.34a7.57 7.57 0 01-3.1 2.84 10.1 10.1 0 01-4.75 1.09zm0-17a4.78 4.78 0 00-1.91.37 4.2 4.2 0 00-1.48 1 4.85 4.85 0 00-.94 1.59 6.06 6.06 0 00-.33 2v.26h8.95v-.37a5.3 5.3 0 00-1.15-3.57 3.89 3.89 0 00-3.14-1.28zM333.35 39.29h10.24a5.2 5.2 0 013.83 1.33 4.76 4.76 0 011.35 3.55q0 3.63-3.88 4.11v.18a5.25 5.25 0 013.46 1.35 4.23 4.23 0 011.13 3 6.35 6.35 0 01-.39 2.26 5.34 5.34 0 01-1.11 1.8 5 5 0 01-1.76 1.18 6.16 6.16 0 01-2.33.43h-10.54zm9.1 8a2.22 2.22 0 001.59-.52 1.93 1.93 0 00.55-1.48v-.93a1.89 1.89 0 00-.55-1.47 2.22 2.22 0 00-1.59-.52h-5.15v4.92zm.52 8.18a2.49 2.49 0 001.7-.56 2.05 2.05 0 00.63-1.63v-1a2.1 2.1 0 00-.63-1.64 2.4 2.4 0 00-1.7-.58h-5.67v5.41z"/></g></g></svg>