<svg xmlns="http://www.w3.org/2000/svg" width="581.745" height="45.57mm" viewBox="0 0 15392 4557" clip-rule="evenodd" fill-rule="evenodd" image-rendering="optimizeQuality" shape-rendering="geometricPrecision" text-rendering="geometricPrecision"><g fill-rule="nonzero"><path d="M6753 2454h-357l-35-643c0-15-1-26-2-33s-3-14-7-19c-3 0-6 4-9 11-3 8-7 26-13 54l-103 453c-18 82-36 136-55 161-20 24-51 37-95 37-42 0-72-13-91-37-19-25-38-79-56-161l-101-453c-9-43-17-65-24-65-2 5-3 10-3 13-4 16-6 29-6 39l-35 643h-357l82-950c5-66 20-117 43-154 41-65 107-98 200-98 84 0 148 23 191 69 28 31 49 77 64 139l78 315c2 12 5 21 10 27 1 3 3 6 7 9 2-3 4-6 5-9 5-10 9-19 12-27l79-315c16-63 37-110 64-139 42-46 105-69 191-69 91 0 157 32 198 96 25 40 40 91 45 156zm1079 0h-368v-435c0-34 0-58-1-72 0-14-1-25-2-33-6 8-10 14-12 19-7 12-15 28-25 49l-139 299c-29 64-57 108-83 133-41 40-95 61-160 61-83 0-138-33-168-98-15-35-23-84-23-145v-960h368v515l5 19c2-4 4-6 5-9 6-9 13-22 21-38l148-313c29-63 58-107 85-133 41-41 95-61 160-61 64 0 112 19 143 56 31 38 46 94 46 169zm1087-776c0 45-4 87-13 126-8 40-23 77-45 112-46 75-112 127-197 157-53 18-117 27-191 27h-63v-328h31c31 0 55-9 72-26 16-18 24-39 24-63 0-26-8-48-25-65-17-16-38-25-63-25-37 0-62 16-74 49-8 20-12 50-12 90v722h-368v-658c0-122 10-212 30-271 36-104 111-182 225-233 30-13 64-23 100-30 37-7 73-10 108-10 113 0 209 26 285 78 55 37 98 85 129 146 31 60 47 127 47 202zm1752 185c0 168-61 312-182 432s-266 180-436 180-316-60-437-180-182-264-182-432c0-167 61-311 182-431s267-180 437-180 315 60 436 180 182 264 182 431zm-382 0c0-65-23-121-69-167s-102-69-167-69c-66 0-121 23-168 69-46 46-69 102-69 167 0 66 23 121 69 168 47 46 102 69 168 69 65 0 121-23 167-69 46-47 69-102 69-168zm1450 591h-96c-84 0-147-7-191-23-65-23-127-70-188-142-61 72-123 119-187 142-44 16-108 23-191 23h-97v-337h24c70 0 126-13 167-39 67-42 100-114 100-216 0-85-24-148-73-190-48-41-113-62-196-62h-22v-338h41c108 0 187 7 238 22 82 24 148 72 196 145 50-76 118-126 205-148 47-13 123-19 229-19h41v338h-22c-58 0-107 10-147 30-81 41-122 115-122 222 0 101 34 172 100 214 43 27 99 41 167 41h24zm1355-591c0 168-61 312-182 432s-266 180-436 180c-171 0-316-60-437-180s-182-264-182-432c0-167 61-311 182-431s266-180 437-180c170 0 315 60 436 180s182 264 182 431zm-382 0c0-65-23-121-69-167s-102-69-167-69c-66 0-122 23-168 69s-69 102-69 167c0 66 23 121 69 168 46 46 102 69 168 69 65 0 121-23 167-69 46-47 69-102 69-168zm1198-253h-196v844h-368v-844h-196v-338h760zm1482 844h-368V1272h368zm-470-405c0 74-15 141-45 199-24 45-56 84-95 117-45 37-99 65-161 83s-122 27-180 27c-61 0-117-8-168-23-50-15-96-40-137-74-61-50-104-116-128-197-15-51-22-112-22-184v-725h368v726c0 52 12 89 36 112 17 16 37 24 61 24 23 0 44-9 62-26s27-39 27-66-8-49-25-67-40-27-69-27c-17 0-32 3-44 10v-341c27-7 57-10 89-10 45 0 88 5 127 15s78 27 115 52c53 33 95 75 127 127 41 69 62 151 62 248z" fill="#4c4c4c"/><path d="M2848 3143l-63-1152c0-26-1-46-3-59s-6-25-12-35c-6 0-12 7-17 21s-13 47-23 97l-184 811c-33 147-66 243-100 287s-91 66-170 66c-74 0-129-22-163-66s-67-140-100-287l-181-811c-16-78-30-118-43-118-4 10-6 18-6 24-6 29-9 52-9 70l-63 1152h-638l145-1702c10-117 36-209 78-276 73-117 192-175 357-175 152 0 266 41 342 124 51 54 89 137 115 248l139 565c4 21 10 37 18 49 2 4 6 9 13 15 4-6 7-11 9-15 10-18 17-34 21-49l142-565c28-113 66-196 115-248 75-83 188-124 342-124 163 0 281 57 354 172 44 71 71 164 81 279l142 1702h1c11 69 26 136 44 202 246-287 394-660 394-1067 0-908-737-1644-1645-1644-909 0-1646 736-1646 1644s737 1645 1646 1645c217 0 424-42 614-119 78 201 184 388 313 556-283 126-597 197-927 197C1021 4557 0 3536 0 2278S1021 0 2280 0c1258 0 2279 1020 2279 2278 0 654-276 1244-718 1660-154 145-329 269-519 367-257-327-427-726-474-1162z" fill="#e50000"/><path d="M8399 3173h49c-5 40-20 71-45 95-26 24-62 36-109 37-54 0-96-17-127-50-30-32-46-78-46-137 0-60 15-108 44-144 28-36 71-54 128-54 47 0 82 11 107 33 24 21 39 51 43 90h-49c-3-26-13-46-30-60-18-15-42-22-71-22-39 0-68 13-89 40s-31 65-31 115c0 44 11 79 33 106 22 28 52 42 90 42 29 0 53-9 72-26s29-38 31-65zm161-87h191v41h-191v126h216v41h-265v-363h259v41h-210zm350-114h-118v-41h285v41h-118v322h-49zm266-41v148h104c39 0 68 10 87 29 20 19 30 46 31 79 0 35-11 61-31 79-21 19-49 28-87 28h-153v-363zm0 188v134h99c20 0 37-6 51-17 14-10 22-27 22-50 0-21-6-37-19-49-13-11-33-17-60-18zm570 175l-118-305h-1l1 14v291h-49v-363h73l114 299 114-299h73v363h-49v-291l1-14h-1l-118 305zm336-94l-34 94h-53l137-363h52l138 363h-52l-35-94zm13-41h127l-64-179zm318-187v322h-49v-363h231v41zm216 228l-34 94h-53l137-363h52l138 363h-53l-34-94zm13-41h127l-64-179zm248 23h49c1 26 10 46 27 60 17 15 42 22 76 22 30 0 52-7 68-20 15-13 23-30 23-52s-7-39-20-51c-14-12-35-18-63-18h-48v-41h43c22 0 40-4 53-14 14-9 20-23 20-43s-7-35-21-47c-14-11-35-17-62-17-29 0-51 6-66 19-15 12-23 30-24 51h-49c3-37 16-65 40-84 24-18 58-27 103-27 40 0 71 9 94 26 24 17 35 42 35 75 0 21-6 38-17 53-11 14-26 23-45 26v1c27 7 46 18 59 34 12 16 18 37 18 61 0 34-12 60-35 80-23 19-57 29-103 29-51 0-90-11-115-32s-39-52-40-91zm416 41l193-292h49v363h-49v-295l-193 295h-49v-363h49zm379-100v171h-49v-363h49v151h183v-151h48v363h-48v-171zm299-11c0-61 16-109 47-142 32-34 74-50 126-50 53 0 95 17 127 50 31 34 47 81 47 142-1 60-16 107-46 141s-73 52-128 52-98-18-128-52-45-81-45-141zm52 0c0 50 11 88 32 114 21 25 51 38 89 38 36 0 65-13 88-37 22-25 34-63 34-115 0-45-11-81-31-109-21-28-51-42-91-42s-70 14-90 41c-21 28-31 65-31 110zm362-181h159c37 0 64 8 82 25 18 16 27 38 27 67 0 20-6 37-18 52-11 14-26 23-43 26v1c23 4 41 14 55 29s21 35 21 62c0 33-11 58-32 75-22 17-54 26-97 26h-154zm49 41v113h98c22 0 40-5 52-15 13-9 19-23 19-42 0-18-7-32-18-42-12-10-29-14-52-14zm0 154v127h101c29 0 50-5 64-16 13-11 20-27 20-49 0-20-7-35-20-46s-34-16-64-16z"/></g></svg>