<svg xmlns="http://www.w3.org/2000/svg" width="43" height="28" fill="none"><path fill="#4B4B4B" d="M40.419 0H2.277C1.02 0 0 1.042 0 2.327v22.747c0 1.286 1.02 2.328 2.277 2.328h38.142c1.257 0 2.276-1.042 2.276-2.328V2.327C42.695 1.042 41.676 0 40.42 0ZM28.45 25.557c-2.674 0-5.138-.927-7.104-2.479a11.426 11.426 0 0 1-7.104 2.479c-6.41 0-11.624-5.32-11.624-11.857 0-6.538 5.215-11.855 11.624-11.855 2.674 0 5.138.924 7.104 2.477a11.418 11.418 0 0 1 7.104-2.477c6.41 0 11.624 5.318 11.624 11.855 0 6.537-5.215 11.857-11.624 11.857Z"/><path fill="#4B4B4B" d="M11.975 14.459a2.059 2.059 0 0 0-.243-.017c-.619 0-.93.217-.93.643 0 .264.152.432.389.432.445 0 .764-.432.784-1.058ZM30.148 14.459a2.041 2.041 0 0 0-.245-.017c-.617 0-.93.217-.93.643 0 .264.153.432.392.432.443 0 .764-.432.783-1.058ZM20.85 13.737c.006-.087.114-.758-.505-.758-.345 0-.593.271-.692.758h1.196ZM35.47 15.368c.508 0 .866-.59.866-1.427 0-.54-.203-.83-.578-.83-.495 0-.846.588-.846 1.42 0 .556.188.837.559.837Z"/><path fill="#4B4B4B" d="M28.415 2.908c-2.355 0-4.53.789-6.286 2.12a11.923 11.923 0 0 1 3.334 5.702h-1.076a10.848 10.848 0 0 0-3.067-5.025 10.84 10.84 0 0 0-3.065 5.024h-1.078a11.937 11.937 0 0 1 3.335-5.701 10.371 10.371 0 0 0-6.286-2.12c-5.838 0-10.569 4.837-10.569 10.806 0 5.966 4.732 10.805 10.569 10.805 2.356 0 4.53-.789 6.286-2.12a11.94 11.94 0 0 1-3.227-5.313h1.088a10.821 10.821 0 0 0 2.947 4.636 10.813 10.813 0 0 0 2.949-4.636h1.088a11.957 11.957 0 0 1-3.228 5.313 10.367 10.367 0 0 0 6.286 2.12c5.836 0 10.568-4.839 10.568-10.805 0-5.969-4.732-10.806-10.568-10.806Zm-20.4 13.438.624-4.002-1.393 4.002h-.744l-.092-3.979-.655 3.98h-1.02l.85-5.209h1.569l.044 3.223 1.058-3.223h1.692l-.843 5.208h-1.09Zm5.078-2.247c-.095.612-.298 1.926-.326 2.247h-.903l.02-.44c-.275.348-.642.514-1.141.514-.592 0-.995-.473-.995-1.156 0-1.033.703-1.633 1.912-1.633.124 0 .283.012.445.033.033-.14.041-.2.041-.276 0-.28-.188-.385-.698-.385a3.5 3.5 0 0 0-1.154.19l.152-.951c.542-.164.901-.225 1.304-.225.936 0 1.432.428 1.43 1.24.002.219-.033.488-.087.842Zm2.953-1.017a5.852 5.852 0 0 0-.782-.064c-.354 0-.535.117-.535.346 0 .198.053.245.51.46.546.258.767.597.767 1.18 0 .967-.53 1.416-1.68 1.416-.667-.02-.887-.071-1.136-.126l.15-.978c.35.116.653.166.977.166.432 0 .627-.119.627-.381 0-.194-.068-.255-.51-.468-.577-.279-.83-.647-.83-1.183-.004-.783.418-1.433 1.638-1.433.249 0 .676.038.959.083l-.155.982Zm2.278.048h-.56c-.124.804-.304 1.806-.306 1.94 0 .22.114.314.374.314.124 0 .22-.014.293-.04l-.144.938a2.49 2.49 0 0 1-.784.138c-.557 0-.86-.328-.86-.931-.008-.187.08-.679.15-1.13.061-.394.471-2.887.471-2.887h1.084l-.127.64h.558l-.149 1.018Zm3.403 1.462H19.57c-.073.612.312.868.942.868.388 0 .737-.08 1.126-.265l-.18 1.054c-.372.116-.732.17-1.111.17-1.215-.002-1.847-.65-1.847-1.89 0-1.447.805-2.512 1.898-2.512.893 0 1.464.595 1.464 1.533 0 .31-.04.612-.135 1.042Zm2.42-1.277c-.611-.064-.705.441-1.096 3.031h-1.09l.05-.285c.19-1.312.432-2.64.57-3.95h1c.009.216-.038.425-.065.643.333-.5.59-.766 1.045-.668-.135.234-.316.697-.415 1.229Zm3.272 2.95c-.401.114-.662.155-.963.155-1.173 0-1.905-.865-1.905-2.248 0-1.862 1.01-3.162 2.455-3.162.476 0 1.038.206 1.198.27l-.179 1.13c-.389-.201-.671-.282-.974-.282-.814 0-1.383.804-1.383 1.951 0 .79.382 1.269 1.016 1.269.269 0 .565-.086.926-.268l-.191 1.186Zm3.846-2.166c-.093.612-.297 1.926-.325 2.247h-.902l.02-.44c-.276.348-.645.514-1.143.514-.59 0-.996-.473-.996-1.156 0-1.033.705-1.633 1.913-1.633.124 0 .283.012.445.033.034-.14.042-.2.042-.276 0-.28-.189-.385-.697-.385a3.495 3.495 0 0 0-1.154.19c.01-.07.15-.951.15-.951.544-.164.903-.225 1.304-.225.937 0 1.433.428 1.431 1.24.003.219-.033.488-.088.842Zm1.314 2.247H31.49l.05-.285c.189-1.312.431-2.64.568-3.95h1c.01.216-.037.425-.063.643.332-.5.587-.766 1.044-.668-.136.234-.317.697-.414 1.229-.61-.064-.705.441-1.096 3.031Zm3.468 0 .052-.394c-.3.326-.607.468-1.005.468-.793 0-1.316-.698-1.316-1.757 0-1.41.812-2.597 1.773-2.597.422 0 .744.176 1.042.577l.24-1.505h1.076l-.83 5.208h-1.032Z"/></svg>