<svg xmlns="http://www.w3.org/2000/svg" width="43" height="28" fill="none"><path fill="#4B4B4B" d="M40.714 0H2.297C1.027 0 0 1.066 0 2.378v23.244C0 26.934 1.028 28 2.292 28h38.416C41.972 28 43 26.934 43 25.622V2.378C43.005 1.066 41.978 0 40.714 0ZM15.999 19.402H12.7v-6.365a.222.222 0 0 0-.22-.223.215.215 0 0 0-.214.184l-1.93 6.404H7.97l-1.924-6.41a.215.215 0 0 0-.214-.178c-.12 0-.22.1-.22.223v6.365H2.314V8.459H5.99c.604 0 1.242.48 1.417 1.066l1.605 5.332c.083.268.21.262.292 0l1.604-5.332c.176-.592.814-1.066 1.418-1.066H15.998v10.943Zm12.255 0h-3.297v-6.505a.201.201 0 0 0-.198-.195.183.183 0 0 0-.17.106v.006c0 .005-.006.01-.006.016l-2.693 5.868c-.17.38-.632.687-1.05.71h-3.297V8.463h3.297v6.365a.22.22 0 0 0 .401.128c.012-.022.023-.039.028-.066l2.622-5.718c.176-.385.648-.692 1.066-.709h3.297v10.938Zm8.684-3.518h-3.737v3.574h-3.298v-6.03h10.448c-.506 1.423-1.841 2.445-3.413 2.456Zm3.55-3.015h-5.732c-2.803 0-5.1-1.948-5.292-4.41h7.463c2.006.016 3.627 1.669 3.627 3.713 0 .24-.022.474-.066.697Z"/></svg>