<svg xmlns="http://www.w3.org/2000/svg" fill="none" viewBox="0 0 16 16"><path fill="#C50000" d="M8 16c-4.4 0-8-3.6-8-8s3.6-8 8-8 8 3.6 8 8-3.6 8-8 8ZM8 1.8C4.6 1.8 1.8 4.6 1.8 8c0 3.4 2.8 6.2 6.2 6.2 3.4 0 6.2-2.8 6.2-6.2 0-3.4-2.8-6.2-6.2-6.2Z"/><path fill="#C50000" d="M7.7 12.2c-.1 0-.2 0-.3-.1-.2-.1-.3-.1-.4-.2-.2-.2-.3-.4-.3-.6 0-.1 0-.2.1-.4 0-.1.1-.2.2-.3.1-.1.2-.1.3-.2.2-.1.5-.1.7 0 0 0 .1.1.2.1l.1.1c.1.1.2.2.2.3 0 .1.1.2.1.4s0 .2-.1.3c0 .1-.1.2-.2.3-.2.2-.4.3-.6.3ZM7.8 9.8c-.5 0-.9-.4-.9-.9v-.5c0-.4.2-.7.6-.8.3-.2 1-.6 1.1-1.1 0-.3-.1-.6-.2-.8-.2-.1-.4-.2-.5-.2-.6 0-.7.2-.7.4-.1.5-.6.8-1.1.7-.5-.1-.8-.5-.7-1 .1-.6.8-1.9 2.5-1.9.7 0 1.3.3 1.7.7.5.5.8 1.3.7 2.1-.1 1.2-1 2-1.7 2.4 0 .5-.4.9-.8.9Z"/></svg>