<svg xmlns="http://www.w3.org/2000/svg" width="43" height="28" fill="none"><path fill="#4B4B4B" d="M33.838 15.197c.251-.656 1.21-3.187 1.21-3.187-.018.03.25-.66.403-1.088l.205.983.703 3.292h-2.521Z"/><path fill="#4B4B4B" d="M40.419 0H2.277C1.02 0 0 1.043 0 2.33V25.1c0 1.287 1.02 2.33 2.277 2.33h38.142c1.257 0 2.276-1.043 2.276-2.33V2.33c0-1.287-1.019-2.33-2.276-2.33ZM8.479 19.42l-2.7-9.902c-.934-.53-1.999-.956-3.19-1.25l.038-.238h4.898c.66.025 1.193.24 1.377.963l1.065 5.238.317 1.58 2.974-7.774h3.218l-4.782 11.379-3.214.003Zm10.363.01h-3.036l1.899-11.401h3.037l-1.9 11.4Zm5.286.169c-1.362-.015-2.674-.29-3.384-.608l.427-2.553.39.181c.998.426 1.644.599 2.86.599.873 0 1.81-.35 1.817-1.113.006-.5-.391-.856-1.574-1.415-1.152-.545-2.678-1.459-2.661-3.097.018-2.216 2.132-3.762 5.133-3.762 1.178 0 2.121.248 2.723.479l-.412 2.47-.272-.131a5.496 5.496 0 0 0-2.274-.437c-1.189 0-1.74.507-1.74.98-.006.535.644.887 1.706 1.414 1.752.814 2.562 1.8 2.55 3.098-.023 2.366-2.096 3.895-5.29 3.895Zm13.16-.166s-.279-1.31-.37-1.708l-3.89-.005c-.118.308-.64 1.713-.64 1.713H29.2L33.71 8.985c.32-.742.864-.945 1.591-.945h2.347l2.459 11.393h-2.819Z"/></svg>